<svg xmlns="http://www.w3.org/2000/svg" width="35.13" height="35.272" viewBox="0 0 35.13 35.272">
  <g id="Earth" transform="translate(821.5 -130.47)">
    <g id="Path_89" data-name="Path 89" transform="translate(-821.5 130.505)" fill="#3eb6b9">
      <path d="M 17.56460189819336 32.12920379638672 C 13.67425155639648 32.12920379638672 10.01676177978516 30.61422157287598 7.265872001647949 27.86333274841309 C 4.514981746673584 25.11244201660156 3.000001907348633 21.45495223999023 3.000001907348633 17.56460189819336 C 3.000001907348633 13.67425155639648 4.514981746673584 10.01676177978516 7.265872001647949 7.265872001647949 C 10.01676177978516 4.514981746673584 13.67425155639648 3.000001907348633 17.56460189819336 3.000001907348633 C 21.45495223999023 3.000001907348633 25.11244201660156 4.514981746673584 27.86333274841309 7.265872001647949 C 30.61422157287598 10.01676177978516 32.12920379638672 13.67425155639648 32.12920379638672 17.56460189819336 C 32.12920379638672 21.45495223999023 30.61422157287598 25.11244201660156 27.86333274841309 27.86333274841309 C 25.11244201660156 30.61422157287598 21.45495223999023 32.12920379638672 17.56460189819336 32.12920379638672 Z" stroke="none"/>
      <path d="M 17.56460189819336 6.000001907348633 C 11.18785667419434 6.000001907348633 6.000001907348633 11.18785667419434 6.000001907348633 17.56460189819336 C 6.000001907348633 23.94134521484375 11.18785667419434 29.12920188903809 17.56460189819336 29.12920188903809 C 23.94134521484375 29.12920188903809 29.12920188903809 23.94134521484375 29.12920188903809 17.56460189819336 C 29.12920188903809 11.18785667419434 23.94134521484375 6.000001907348633 17.56460189819336 6.000001907348633 M 17.56460189819336 0 C 27.26525688171387 0 35.12920379638672 7.863946914672852 35.12920379638672 17.56460189819336 C 35.12920379638672 27.26525688171387 27.26525688171387 35.12920379638672 17.56460189819336 35.12920379638672 C 7.863946914672852 35.12920379638672 0 27.26525688171387 0 17.56460189819336 C 0 7.863946914672852 7.863946914672852 0 17.56460189819336 0 Z" stroke="none" fill="#3eb6b9"/>
    </g>
    <g id="Path_85" data-name="Path 85" transform="translate(-821.5 130.505)" fill="#39a9ab">
      <path d="M 17.56459999084473 32.12920379638672 C 13.67425060272217 32.12920379638672 10.01676082611084 30.61422157287598 7.265870571136475 27.86333274841309 C 4.514980792999268 25.11244201660156 3.000000715255737 21.45495223999023 3.000000715255737 17.56460189819336 C 3.000000715255737 13.67425155639648 4.514980792999268 10.01676177978516 7.265870571136475 7.265872001647949 C 10.01676082611084 4.514981746673584 13.67425060272217 3.000001907348633 17.56459999084473 3.000001907348633 C 19.35021018981934 3.000001907348633 21.09222030639648 3.462281942367554 22.74223136901855 4.374011993408203 C 24.29765129089355 5.233471870422363 25.73829078674316 6.463302135467529 27.02412033081055 8.029332160949707 C 29.35633087158203 10.86975193023682 30.95532989501953 14.66772174835205 31.0977611541748 17.70513153076172 C 31.24290084838867 20.80026245117188 29.43437004089355 24.87733268737793 26.59747123718262 27.85037231445312 C 25.32173156738281 29.18734169006348 23.91575050354004 30.23642158508301 22.41858100891113 30.96848106384277 C 20.84343147277832 31.73868179321289 19.2103099822998 32.12920379638672 17.56459999084473 32.12920379638672 Z" stroke="none"/>
      <path d="M 17.56460762023926 6.000001907348633 C 11.18786239624023 6.000001907348633 5.999996185302734 11.18785667419434 5.999996185302734 17.56460189819336 C 5.999996185302734 23.94134521484375 11.18786239624023 29.12920188903809 17.56460762023926 29.12920188903809 C 20.75430679321289 29.12920188903809 23.23326301574707 27.03040313720703 24.42705154418945 25.77932357788086 C 26.9588737487793 23.12598037719727 28.19175148010254 19.77976989746094 28.10105133056641 17.84564590454102 C 27.91031837463379 13.77830123901367 23.65865325927734 6.000001907348633 17.56460762023926 6.000001907348633 M 17.56460762023926 0 C 27.26526260375977 0 33.76225280761719 10.48004722595215 34.09446334838867 17.56460189819336 C 34.42668533325195 24.6491584777832 27.26526260375977 35.12920379638672 17.56460762023926 35.12920379638672 C 7.863941192626953 35.12920379638672 -3.814697265625e-06 27.26525688171387 -3.814697265625e-06 17.56460189819336 C -3.814697265625e-06 7.863946914672852 7.863941192626953 0 17.56460762023926 0 Z" stroke="none" fill="#39a9ab"/>
    </g>
    <g id="Path_84" data-name="Path 84" transform="translate(-831.278 75.38)" fill="#359f9f">
      <path d="M 36.51268005371094 84.08084869384766 C 35.43490982055664 82.90655517578125 34.17695236206055 82.15056610107422 33.57323837280273 81.78772735595703 C 31.41326904296875 80.48955535888672 28.70742797851562 79.38096618652344 25.84270858764648 78.20728302001953 C 22.65213775634766 76.90010833740234 19.35292816162109 75.54841613769531 16.96532821655273 73.968505859375 C 13.86918830871582 71.91974639892578 13.86918830871582 70.47916412353516 13.86918830871582 70.00577545166016 L 13.86918830871582 69.96485137939453 L 13.86806869506836 69.92394256591797 C 13.85474681854248 69.43571472167969 13.87150478363037 68.95946502685547 13.91819000244141 68.49564361572266 C 14.13353157043457 68.90403747558594 14.37765121459961 69.28565216064453 14.65039825439453 69.63991546630859 C 16.36219787597656 71.86333465576172 19.40798759460449 72.19415283203125 21.63191795349121 72.43570709228516 C 21.94356918334961 72.46955871582031 22.33420753479004 72.51198577880859 22.61258697509766 72.55258941650391 C 23.4782657623291 73.15546417236328 24.45595741271973 73.24526214599609 24.8465690612793 73.28114318847656 C 25.43704795837402 73.33539581298828 26.10308837890625 73.33721160888672 26.87428855895996 73.33931732177734 C 28.98162841796875 73.34506225585938 32.16626739501953 73.35374450683594 33.8331298828125 74.67783355712891 C 35.1125373840332 75.69414520263672 36.24989700317383 77.58190155029297 37.12223815917969 80.13703155517578 C 37.47014999389648 81.15607452392578 37.71167373657227 82.10077667236328 37.86931991577148 82.81136322021484 C 37.51428985595703 83.18479919433594 37.05475616455078 83.63206481933594 36.51268005371094 84.08084869384766 Z" stroke="none"/>
      <path d="M 29.3518238067627 76.41310882568359 C 30.53453636169434 76.91293334960938 31.70076179504395 77.42897796630859 32.813720703125 77.98063659667969 C 32.54730987548828 77.59055328369141 32.26410675048828 77.26278686523438 31.96712875366211 77.02688598632812 C 31.51046943664551 76.66413116455078 30.44121170043945 76.49369812011719 29.3518238067627 76.41310882568359 M 16.08576965332031 59.33932495117188 C 16.08576965332031 59.33932495117188 14.80181884765625 64.91889190673828 17.02750778198242 67.80979156494141 C 18.56356811523438 69.80493927001953 23.6811580657959 69.17264556884766 24.24277877807617 70.00577545166016 C 24.86415863037109 70.92757415771484 31.85178756713867 69.27261352539062 35.69911956787109 72.32877349853516 C 39.98260879516602 75.73139953613281 41.08559799194336 83.67503356933594 41.08559799194336 83.67503356933594 C 41.08559799194336 83.67503356933594 38.79076766967773 86.75774383544922 35.37644958496094 88.36083221435547 C 35.00792694091797 81.57115936279297 10.86919021606445 79.70643615722656 10.86919021606445 70.00577545166016 C 10.6668586730957 62.59068298339844 16.08576965332031 59.33932495117188 16.08576965332031 59.33932495117188 Z" stroke="none" fill="#359f9f"/>
    </g>
    <g id="Path_83" data-name="Path 83" transform="translate(-821.495 8.108)" fill="#329794">
      <path d="M 17.36029815673828 154.6331787109375 C 16.68935775756836 154.6331787109375 14.88713836669922 154.5437316894531 12.64849853515625 153.7152709960938 C 10.51314830780029 152.925048828125 8.635018348693848 151.7140960693359 7.066278457641602 150.1161041259766 L 7.034578323364258 150.0838165283203 L 7.001918315887451 150.0525054931641 C 5.827039241790771 148.9257965087891 4.992126941680908 147.6747131347656 4.400495052337646 146.4339904785156 C 4.858126163482666 146.7743988037109 5.34072208404541 147.0889587402344 5.847458362579346 147.3769226074219 C 7.709508419036865 148.4350433349609 9.914688110351562 149.1391448974609 12.40171813964844 149.4696655273438 C 17.8795280456543 150.1976776123047 20.39640808105469 151.9130096435547 21.54322814941406 153.2238159179688 C 21.77556991577148 153.4893798828125 21.9599494934082 153.7476959228516 22.10616874694824 153.9898986816406 C 21.09695625305176 154.2931976318359 19.60396766662598 154.5861663818359 17.5355281829834 154.6312866210938 C 17.47857856750488 154.6325378417969 17.41988754272461 154.6331787109375 17.36029815673828 154.6331787109375 Z" stroke="none"/>
      <path d="M 1.887418746948242 131.9754333496094 C 1.887418746948242 131.9754333496094 -0.4048118591308594 144.7413024902344 12.79694843292236 146.4958190917969 C 25.99870872497559 148.2503509521484 25.66607856750488 155.6186370849609 25.66607856750488 155.6186370849609 C 25.66607856750488 155.6186370849609 23.44819831848145 157.5030212402344 17.6009578704834 157.6305847167969 C 17.52273559570312 157.6322937011719 17.442138671875 157.6331634521484 17.36029434204102 157.6331634521484 C 14.40146160125732 157.6331634521484 9.122726440429688 156.4933013916016 4.925449371337891 152.2177429199219 C 0.5236778259277344 147.9964294433594 -0.02135086059570312 142.4317932128906 -0.00463104248046875 139.9609527587891 C 0.02859878540039062 135.0487213134766 1.887418746948242 131.9754333496094 1.887418746948242 131.9754333496094 Z" stroke="none" fill="#329794"/>
    </g>
    <path id="Path_88" data-name="Path 88" d="M-741.688,136.834a15.744,15.744,0,0,1,8.565-4.174A17.518,17.518,0,0,1-723.116,134a2.329,2.329,0,0,0-1.671,1.4,3.911,3.911,0,0,0-.052.779,8.546,8.546,0,0,0-.732,2.854c.023.343.676.751,1.071,1.5a9.086,9.086,0,0,0,1.214,1.851c.527.574,1.155.832,1.052.956-.164.232-1.825,1.094-2.333-.956-.561-.734-1.558-.771-2.94-.479a7.836,7.836,0,0,0-2.245.225c-1.229.549-1.958,1.369-1.846,1.6l.235.286-.835,1.215s-.221,1.634.542,1.976c1.006.505,1.233-.713,2.747-1.213a14.537,14.537,0,0,1,3.923-.329c.38.155.023,1.563.42,2.683a5.388,5.388,0,0,0,1.453,2.214c.114.038.035-1.085.378-1.1.815.37,1.786-.4,2.576.043a4.812,4.812,0,0,0,2.508,1.089,1.709,1.709,0,0,1,.625,1.409c-.046.43-.668.746-.761,1.239.011.077,1.519.466,1.263,1.469A6.783,6.783,0,0,1-719,157.634c-.26.192-.2,1.05-.426,2.047-.186.808-.871,1.614-1.074,2.332a6.583,6.583,0,0,0-.149,1.664,15.98,15.98,0,0,1-1.4.958,9.329,9.329,0,0,1-1.677.855,2.638,2.638,0,0,1-.186-1.974c.374-.929,1.413-1.123,1.636-2.119a1.95,1.95,0,0,0-.42-1.333c-.076-.33.121-.6-.178-1.056-.2-.279-1.1.137-1.613-.5a29.211,29.211,0,0,0-1.786-2.353c-.351-.279-.921.111-1.24-.351-.4-.58.047-1.053-.222-1.63-.2-.731,3.471-2.621,2.085-4.712-.776-1.353-3.469.738-4.866.9-2.971.118-1.833-1.815-2.607-1.92-3.932-.036-2.95-2.545-3.853-2.485-.56.016-.973,1.03-.543,1.858.7,1.442,1.036.746,1.4,1.33a.763.763,0,0,1-.552,1.2c-1.636.164-.94-1-1.239-1.559-.075-.134-1.187-.553-1.312-.728a8.531,8.531,0,0,1-.5-1.668c-.106-.4.83-.231.479-.73-.392-.558-1.69-1.2-1.739-1.341.6-1.412,1.783-1.357,1.6-1.916-.553-1.075-1.892-.362-1.989-.641.189-.822.8-.768.391-1.538-.222-.686-.913-.162-1.029-.69A4.385,4.385,0,0,1-741.688,136.834Z" transform="translate(-73.695 -1.419)" fill="#73c15e" stroke="#73c15e" stroke-width="1"/>
    <path id="Path_86" data-name="Path 86" d="M-588.056,146.406s8.239,2.507,12.011,7.2,3.814,10.95,3.814,10.95a21.208,21.208,0,0,0-2.306-11.208,20.812,20.812,0,0,0-7.138-5.517A44.437,44.437,0,0,0-588.056,146.406Z" transform="translate(-216.391 -14.82)" fill="#fff" opacity="0.089"/>
    <path id="Path_87" data-name="Path 87" d="M-588.056,146.406a15.541,15.541,0,0,1,5.929,7.857c.949,2.654-.265,6.189.451,9,.815,3.2,3.617,5.5,5.782,5.327,5.044-.393,4.415-8.258,1.691-14.327-1.351-3.01-4.812-5.224-7.923-6.436A22.624,22.624,0,0,0-588.056,146.406Z" transform="translate(-216.391 -14.82)" fill="#fff" opacity="0.191"/>
  </g>
</svg>
