<svg xmlns="http://www.w3.org/2000/svg" width="35.449" height="36.507" viewBox="0 0 35.449 36.507">
  <g id="Mars" transform="translate(2045 106.294)">
    <g id="Ellipse_1" data-name="Ellipse 1" transform="translate(-2045 -105.288)" fill="#dd5e26" stroke="#ec6933" stroke-width="2" opacity="0.9">
      <circle cx="17.724" cy="17.724" r="17.724" stroke="none"/>
      <circle cx="17.724" cy="17.724" r="16.724" fill="none"/>
    </g>
    <g id="Path_90" data-name="Path 90" transform="translate(-2044.722 -129.304)" fill="#ed802e" opacity="0.618">
      <path d="M 20.5270938873291 46.56734848022461 C 20.50372314453125 46.56734848022461 20.47933387756348 46.56640625 20.4545841217041 46.56456756591797 C 19.91521453857422 46.52429580688477 19.46370315551758 46.03380584716797 18.77169418334961 45.23685836791992 C 17.74906349182129 44.05916595458984 16.34852409362793 42.44625854492188 13.62247371673584 42.44625854492188 C 13.44398403167725 42.44625854492188 13.25962352752686 42.45328903198242 13.07452392578125 42.46716690063477 L 13.071213722229 42.4674186706543 L 13.06790351867676 42.46768951416016 C 11.95309352874756 42.55869674682617 10.84613418579102 43.28247833251953 9.775613784790039 43.98243713378906 C 9.056803703308105 44.45242691040039 8.162214279174805 45.03735733032227 7.681763648986816 45.0711669921875 C 7.593343734741211 45.07738876342773 7.500963687896729 45.08053588867188 7.407203674316406 45.08053588867188 C 6.957103729248047 45.08054733276367 6.497374057769775 45.00795745849609 6.052773952484131 44.93776702880859 C 5.59506368637085 44.86549758911133 5.121763706207275 44.79077911376953 4.643863677978516 44.79077911376953 C 4.523983955383301 44.79077911376953 4.406203746795654 44.79554748535156 4.293803691864014 44.80494689941406 C 3.066055297851562 44.90766143798828 2.005322933197021 45.19581604003906 1.267072319984436 45.45021057128906 C 1.098290205001831 44.68948745727539 0.9142957329750061 43.45174026489258 0.9247938394546509 41.69532775878906 L 0.9249138236045837 41.67521667480469 L 0.9242238402366638 41.65511703491211 C 0.8455638289451599 39.35849761962891 1.533933877944946 35.73027801513672 3.231213808059692 33.19129943847656 L 3.237383842468262 33.18206787109375 L 3.243343830108643 33.17270660400391 C 4.67265796661377 30.92828941345215 6.266563892364502 29.41031074523926 7.396650791168213 28.50691032409668 C 7.391781806945801 28.53279685974121 7.387035369873047 28.55866622924805 7.382383823394775 28.58468818664551 C 6.970073699951172 30.89119720458984 7.643764019012451 32.64301681518555 9.279383659362793 33.51743698120117 C 9.50749683380127 33.63938903808594 9.976634979248047 33.89009475708008 12.83700752258301 33.9015998840332 C 12.88774299621582 34.34804153442383 12.96096134185791 34.90983963012695 13.0599536895752 35.48311614990234 C 13.43660354614258 37.66427612304688 13.94053363800049 38.65337753295898 14.7993335723877 38.89709854125977 C 14.94344425201416 38.93799591064453 15.05727386474609 38.97029876708984 16.37981414794922 38.97029876708984 C 17.20134353637695 38.97029876708984 18.2330436706543 38.95724868774414 18.91670989990234 38.94700241088867 C 18.99910163879395 39.12192916870117 19.10576248168945 39.31061935424805 19.24364471435547 39.50257873535156 C 19.69552421569824 40.13167953491211 20.58320426940918 40.92343902587891 22.24591445922852 41.12272644042969 C 23.1468334197998 41.23071670532227 24.15422439575195 41.25337600708008 24.84067344665527 41.25337600708008 C 24.9814567565918 41.25337600708008 25.10956764221191 41.25244140625 25.22162628173828 41.25107574462891 C 25.53532028198242 41.56696701049805 26.03121566772461 41.94658660888672 26.68333625793457 42.06952285766602 C 26.72152137756348 42.19805908203125 26.78631401062012 42.33077239990234 26.89125442504883 42.4587287902832 C 26.98968696594238 42.57875061035156 27.18449974060059 42.76155090332031 27.50043296813965 42.83906936645508 C 27.50768280029297 42.8440055847168 27.51336669921875 42.84828567504883 27.51772308349609 42.8517951965332 C 27.52076721191406 42.94279861450195 27.44813919067383 43.11421203613281 27.36489105224609 43.24825286865234 C 26.5738410949707 43.29188919067383 24.7629222869873 43.44149780273438 23.24836349487305 44.2758674621582 C 22.60270309448242 44.63156890869141 22.14846420288086 45.16617584228516 21.74770355224609 45.63785934448242 C 21.1986141204834 46.28410720825195 20.91721343994141 46.56733703613281 20.5270938873291 46.56734848022461 Z" stroke="none"/>
      <path d="M 6.333889007568359 30.83798980712891 C 5.604631423950195 31.60166931152344 4.823320388793945 32.55337142944336 4.086833953857422 33.70985794067383 L 4.07490348815918 33.72858810424805 L 4.062562942504883 33.74704742431641 C 2.558353424072266 35.99719619750977 1.847953796386719 39.41131591796875 1.923643112182617 41.62087631225586 L 1.925014495849609 41.66107940673828 L 1.924774169921875 41.70130920410156 C 1.918766021728516 42.70638656616211 1.979190826416016 43.52615356445312 2.061294555664062 44.16976547241211 C 2.688669204711914 44.01155853271484 3.415569305419922 43.87492370605469 4.210393905639648 43.80842590332031 C 4.350404739379883 43.79671478271484 4.496244430541992 43.79077911376953 4.643863677978516 43.79077911376953 C 5.200223922729492 43.79077911376953 5.712913513183594 43.87171936035156 6.208723068237305 43.94999694824219 C 6.633934020996094 44.01712799072266 7.035564422607422 44.08053588867188 7.40721321105957 44.08053588867188 C 7.471334457397461 44.08053588867188 7.534046173095703 44.07861328125 7.593896865844727 44.07481384277344 C 7.907018661499023 44.00943756103516 8.73298454284668 43.46937561035156 9.228363037109375 43.14546966552734 C 10.40342330932617 42.37715911865234 11.61849403381348 41.58268737792969 12.98654365539551 41.47099685668945 L 12.99317359924316 41.470458984375 L 12.99980354309082 41.4699592590332 C 13.20967388153076 41.45422744750977 13.41917419433594 41.44625854492188 13.62247371673584 41.44625854492188 C 16.80458450317383 41.44625854492188 18.44275283813477 43.33282852172852 19.52675247192383 44.58121490478516 C 19.80613708496094 44.9029541015625 20.25917053222656 45.42469787597656 20.47744750976562 45.54571914672852 C 20.61402130126953 45.42774200439453 20.8326530456543 45.17042541503906 20.98563385009766 44.99037933349609 C 21.41949462890625 44.479736328125 21.95944404602051 43.84423828125 22.76583480834961 43.39997863769531 C 23.56516647338867 42.95962905883789 24.42466735839844 42.68975067138672 25.200439453125 42.52244567871094 C 25.0686149597168 42.43597030639648 24.9471435546875 42.34500885009766 24.83621406555176 42.25337600708008 C 24.12259292602539 42.25327682495117 23.07482147216797 42.22924041748047 22.12690353393555 42.11562728881836 C 20.10331344604492 41.87306976318359 19.00037384033203 40.87800598144531 18.43145370483398 40.08596801757812 C 18.40007019042969 40.04227828979492 18.36991119384766 39.9986572265625 18.34096527099609 39.95523834228516 C 17.72788619995117 39.96313858032227 17.00090980529785 39.97029876708984 16.37981414794922 39.97029876708984 C 15.03780364990234 39.97029876708984 14.81650352478027 39.94146728515625 14.52632427215576 39.85910797119141 C 13.19571399688721 39.48148727416992 12.72436332702637 38.13546752929688 12.56947326660156 37.69314575195312 C 12.38005447387695 37.15223693847656 12.21816444396973 36.4849967956543 12.07454299926758 35.65328598022461 C 12.02968406677246 35.39351272583008 11.98991775512695 35.13589859008789 11.95497512817383 34.88956069946289 C 9.816987991333008 34.83627700805664 9.220823287963867 34.62006759643555 8.807914733886719 34.39931869506836 C 7.62933349609375 33.76923751831055 6.819223403930664 32.75232696533203 6.465154647827148 31.45852661132812 C 6.41026496887207 31.25795364379883 6.366510391235352 31.0510139465332 6.333889007568359 30.83798980712891 M 9.257423400878906 26.10184860229492 C 9.257423400878906 26.10184860229492 6.717903137207031 31.01410675048828 9.750843048095703 32.63554763793945 C 10.18628692626953 32.86833953857422 12.01949310302734 32.90201187133789 13.04351711273193 32.90201187133789 C 13.46024990081787 32.90201187133789 13.7429141998291 32.89643859863281 13.7429141998291 32.89643859863281 C 13.7429141998291 32.89643859863281 14.10632419586182 37.66093826293945 15.07234382629395 37.93508911132812 C 15.16539859771729 37.96149444580078 15.70365047454834 37.97030258178711 16.37981796264648 37.97030258178711 C 17.73227691650391 37.97030258178711 19.63686370849609 37.93508911132812 19.63686370849609 37.93508911132812 C 19.63686370849609 37.93508911132812 19.84477424621582 39.82776641845703 22.36492347717285 40.12983703613281 C 23.21381950378418 40.23158645629883 24.17401695251465 40.25337982177734 24.84066581726074 40.25337982177734 C 25.34006500244141 40.25337982177734 25.67467308044434 40.24115753173828 25.67467308044434 40.24115753173828 C 25.67467308044434 40.24115753173828 26.21785354614258 41.06632614135742 27.04922294616699 41.10831832885742 C 27.15334892272949 41.09291458129883 27.24122619628906 41.08587646484375 27.31508827209473 41.08587265014648 C 28.09768486022949 41.08581924438477 27.31593704223633 41.87542724609375 27.81480407714844 41.87586975097656 C 29.1847038269043 42.48475646972656 28.19288444519043 44.0006103515625 27.81480407714844 44.2204475402832 C 27.74359321594238 44.26185607910156 25.47519302368164 44.1908073425293 23.73088455200195 45.15174865722656 C 22.51225280761719 45.82310485839844 22.01103782653809 47.56734466552734 20.52712059020996 47.56734466552734 C 20.47915649414062 47.56734466552734 20.43021011352539 47.56552886962891 20.38013458251953 47.56179046630859 C 18.07915496826172 47.39001083374023 17.56871223449707 43.44625854492188 13.62247276306152 43.44625854492188 C 13.46986675262451 43.44625854492188 13.31245899200439 43.45213317871094 13.14927387237549 43.4643669128418 C 11.46341323852539 43.60199737548828 9.265163421630859 45.96221923828125 7.751953125 46.06869506835938 C 7.635835647583008 46.07686614990234 7.520904541015625 46.08053970336914 7.40721321105957 46.08053970336914 C 6.397218704223633 46.08053970336914 5.481853485107422 45.79077911376953 4.643865585327148 45.79077911376953 C 4.554027557373047 45.79077911376953 4.465248107910156 45.79409790039062 4.377162933349609 45.80146789550781 C 2.219814300537109 45.98194885253906 0.6218338012695312 46.78773498535156 0.6218338012695312 46.78773498535156 C 0.6218338012695312 46.78773498535156 -0.0962066650390625 45.20559692382812 -0.07518577575683594 41.68934631347656 C -0.1636161804199219 39.10770797729492 0.6206836700439453 35.29703903198242 2.399864196777344 32.63554763793945 C 5.464954376220703 27.82251739501953 9.257423400878906 26.10184860229492 9.257423400878906 26.10184860229492 Z" stroke="none" fill="#ed802e"/>
    </g>
    <path id="Path_91" data-name="Path 91" d="M-1285.943,85.844a19.712,19.712,0,0,1,6.5,3.873,14.754,14.754,0,0,1,4.116,5.993,24.517,24.517,0,0,0-2.942.192c-1.311.179-2.7.609-3.361.361-1.354-.511-1.888-3.311-1.888-3.311s-3.318-.494-3.923-2.272S-1285.943,85.844-1285.943,85.844Z" transform="translate(-736.113 -189.662)" fill="#db5629" stroke="#da5628" stroke-width="1"/>
    <path id="Path_92" data-name="Path 92" d="M-1499.638,153.1a16.387,16.387,0,0,0,5.326,4.505c4.039,1.755,13.725,4.343,20.213-3.726,10.723-13.337-1.936-24.2-1.936-24.2s8.883,11.439-1.267,22.049S-1499.638,153.1-1499.638,153.1Z" transform="translate(-540.642 -230.549)" fill="#c93227" stroke="#c93227" stroke-width="1" opacity="0.739"/>
    <path id="Path_93" data-name="Path 93" d="M-1495.769,372.473s9,7.147,15.73.951,12.659-5.273,12.659-5.273-4.092,8.528-13.122,9.862S-1495.769,372.473-1495.769,372.473Z" transform="translate(-544.269 -448.476)" fill="#c31f26" stroke="#c31f27" stroke-width="1" opacity="0.387"/>
    <g id="Path_100" data-name="Path 100" transform="translate(-2044.148 -96.131) rotate(-30)" fill="#f59e3f" opacity="0.547">
      <path d="M 15.03302001953125 5.888688564300537 C 13.86096000671387 5.888688564300537 12.73285007476807 5.838448524475098 11.88097953796387 5.794668674468994 C 10.9909200668335 5.748928546905518 9.441539764404297 5.729648590087891 7.801199913024902 5.709238529205322 C 5.558027267456055 5.681332111358643 2.014038562774658 5.637235164642334 0.7222426533699036 5.479725360870361 C 1.179448008537292 4.885872364044189 2.275918960571289 3.743658065795898 3.893819808959961 2.685388565063477 C 5.892189979553223 1.378238558769226 8.404729843139648 0.4999985098838806 10.14595985412598 0.4999985098838806 C 11.4284782409668 0.4999985098838806 13.5712366104126 0.4999793171882629 14.98137474060059 1.011441946029663 C 15.36196422576904 1.190792798995972 16.56631278991699 1.977543115615845 17.7178897857666 2.887908458709717 C 19.3417797088623 4.171668529510498 19.80792999267578 4.859818458557129 19.82752990722656 5.044338703155518 C 19.82735061645508 5.167198657989502 19.55862045288086 5.436908721923828 18.55142974853516 5.637568473815918 C 17.7150707244873 5.804208278656006 16.53130912780762 5.888688564300537 15.03302001953125 5.888688564300537 Z" stroke="none"/>
      <path d="M 10.14595985412598 0.9999985694885254 C 8.493849754333496 0.9999985694885254 6.091300010681152 1.845458507537842 4.167520523071289 3.103818416595459 C 3.143589019775391 3.77357292175293 2.31866455078125 4.494187355041504 1.757719039916992 5.062780380249023 C 3.36512565612793 5.154007911682129 6.017351150512695 5.187011241912842 7.807419776916504 5.209278583526611 C 9.452759742736816 5.229748725891113 11.00685977935791 5.249088287353516 11.90664005279541 5.295328617095947 C 12.75249004364014 5.338798522949219 13.87224960327148 5.388688564300537 15.03302001953125 5.388688564300537 C 17.73687171936035 5.388688564300537 18.80181503295898 5.104540348052979 19.19416236877441 4.937540531158447 C 18.94125556945801 4.613016128540039 18.36028671264648 4.019261360168457 17.24279022216797 3.150808572769165 C 16.11945533752441 2.277832508087158 15.09434413909912 1.62434720993042 14.78797912597656 1.473232269287109 C 13.45976829528809 0.9999923706054688 11.38845920562744 0.9999985694885254 10.14595985412598 0.9999985694885254 M 10.14595985412598 -1.430511474609375e-06 C 11.52606964111328 -1.430511474609375e-06 13.68820953369141 0.003408432006835938 15.17228984832764 0.548858642578125 C 16.049560546875 0.9469785690307617 20.32735061645508 3.952808618545532 20.32735061645508 5.039468765258789 C 20.32735061645508 6.14307975769043 17.61685180664062 6.388692855834961 15.03302192687988 6.388692855834961 C 13.85888862609863 6.388692855834961 12.7109375 6.337977886199951 11.85531997680664 6.294008731842041 C 9.116800308227539 6.153278350830078 0.2053604125976562 6.267528533935547 0.00550079345703125 5.789868354797363 C -0.1014308929443359 5.534318447113037 1.36005973815918 3.745258569717407 3.620119094848633 2.266948699951172 C 5.558730125427246 0.9988884925842285 8.159130096435547 -1.430511474609375e-06 10.14595985412598 -1.430511474609375e-06 Z" stroke="none" fill="#f49e3f"/>
    </g>
    <g id="Path_94" data-name="Path 94" transform="translate(-2031.249 -78.543)" fill="#ce2b26" opacity="0.419">
      <path d="M 9.339008331298828 1.290774703025818 C 9.057784080505371 1.290774703025818 8.819147109985352 1.231625437736511 8.66614818572998 1.124124884605408 C 8.586730003356934 1.061879277229309 8.562882423400879 0.8895197510719299 8.613198280334473 0.7373046875 C 8.655488014221191 0.6093446612358093 8.754698753356934 0.4567746818065643 8.987168312072754 0.4566046595573425 C 9.591803550720215 0.4561476111412048 9.913930892944336 0.2071987837553024 9.970522880554199 -0.3040289580821991 C 9.975591659545898 -0.3048838675022125 9.980930328369141 -0.3057346940040588 9.986557960510254 -0.3065753281116486 C 10.23492813110352 -0.3436853289604187 10.47644805908203 -0.3633053302764893 10.68500804901123 -0.3633053302764893 C 11.14825820922852 -0.3633053302764893 11.38595867156982 -0.2680753171443939 11.44874858856201 -0.1865353286266327 C 11.5012378692627 -0.1183553338050842 11.46615791320801 0.0431346707046032 11.44863796234131 0.109404668211937 C 11.28808879852295 0.7166546583175659 10.26284790039062 1.290774703025818 9.339008331298828 1.290774703025818 Z" stroke="none"/>
      <path d="M 10.68500804901123 0.1366946697235107 C 10.58804225921631 0.1366946697235107 10.48229122161865 0.1416023969650269 10.37116622924805 0.151137113571167 C 10.28107166290283 0.3794999122619629 10.13629627227783 0.5631895661354065 9.942672729492188 0.6971368789672852 C 10.35526371002197 0.5730041265487671 10.70992660522461 0.3460410833358765 10.87446212768555 0.143671989440918 C 10.82117938995361 0.1394182443618774 10.75841522216797 0.1366946697235107 10.68500804901123 0.1366946697235107 M 10.68500900268555 -0.8633047342300415 C 11.42703056335449 -0.8633047342300415 12.16738319396973 -0.6530009508132935 11.93202877044678 0.2372046709060669 C 11.69410991668701 1.137076735496521 10.39338970184326 1.790777564048767 9.339006423950195 1.790777564048767 C 8.965938568115234 1.790777564048767 8.623867988586426 1.709010362625122 8.370408058166504 1.527354717254639 C 7.825578689575195 1.122384667396545 8.082588195800781 -0.04271531105041504 8.986788749694824 -0.0433952808380127 C 9.89097785949707 -0.0440753698348999 9.076678276062012 -0.6761653423309326 9.912668228149414 -0.801085352897644 C 10.13778972625732 -0.8347247838973999 10.41155433654785 -0.8633047342300415 10.68500900268555 -0.8633047342300415 Z" stroke="none" fill="#ce2b27"/>
    </g>
    <g id="Path_95" data-name="Path 95" transform="translate(-2045.956 -85.363)" fill="#ce2b26" opacity="0.817">
      <path d="M 11.30423641204834 6.85725212097168 C 10.67301464080811 6.85725212097168 9.304827690124512 6.093893527984619 8.915529251098633 5.808501243591309 C 8.887752532958984 5.504758834838867 8.940780639648438 4.758565902709961 9.229496002197266 4.390642166137695 C 9.327926635742188 4.265212059020996 9.431666374206543 4.211692333221436 9.576366424560547 4.211692333221436 L 9.581436157226562 4.21171236038208 C 9.649138450622559 4.212301731109619 9.699248313903809 4.216365814208984 9.735476493835449 4.221234798431396 C 9.728660583496094 4.278205871582031 9.716577529907227 4.348131656646729 9.70732593536377 4.40167236328125 C 9.651856422424316 4.722671985626221 9.568036079406738 5.20778226852417 9.884536743164062 5.63496208190918 C 10.11157608032227 5.941411972045898 10.45747661590576 6.148921966552734 10.76265621185303 6.33200216293335 C 11.28408050537109 6.644805908203125 11.36428451538086 6.744448184967041 11.34416389465332 6.855810642242432 C 11.33315467834473 6.856672763824463 11.31992053985596 6.85725212097168 11.30423641204834 6.85725212097168 Z" stroke="none"/>
      <path d="M 9.576377868652344 3.711681365966797 C 9.579574584960938 3.711681365966797 9.582582473754883 3.711694240570068 9.585796356201172 3.711722373962402 C 10.83934593200684 3.722642421722412 9.818256378173828 4.705602169036865 10.28628635406494 5.3373122215271 C 10.75430679321289 5.969022274017334 12.13290596008301 6.168272018432617 11.79556655883789 7.088922023773193 C 11.72545623779297 7.280253887176514 11.54581451416016 7.357245445251465 11.30424022674561 7.357245445251465 C 10.38341903686523 7.357245445251465 8.561484336853027 6.239333629608154 8.464046478271484 6.075052261352539 C 8.341371536254883 5.868203639984131 8.332489013671875 3.711681365966797 9.576377868652344 3.711681365966797 Z" stroke="none" fill="#ce2b27"/>
    </g>
    <g id="Path_98" data-name="Path 98" transform="translate(-2035.823 -93.197)" fill="#e65f27" opacity="0.691">
      <path d="M 5.991158962249756 5.350042819976807 C 5.289808750152588 5.350042819976807 4.604158878326416 5.226233005523682 4.244368553161621 5.034612655639648 C 4.012048721313477 4.910882949829102 3.889148712158203 4.749912738800049 3.85762882232666 4.528022766113281 C 3.786988735198975 4.030852794647217 4.165308952331543 3.297142744064331 4.82145881652832 2.65880274772644 C 5.083688735961914 2.403682947158813 5.201268672943115 2.400752782821655 5.206148624420166 2.400752782821655 C 5.266748905181885 2.400752782821655 5.424778938293457 2.576722860336304 5.509668827056885 2.671252965927124 C 5.716088771820068 2.901102781295776 5.998798847198486 3.215892791748047 6.435388565063477 3.215892791748047 C 6.443488597869873 3.215892791748047 6.451358795166016 3.215782880783081 6.459508895874023 3.21556282043457 C 6.465778827667236 3.215382814407349 6.472368717193604 3.21530294418335 6.479208946228027 3.21530294418335 C 6.923128604888916 3.21530294418335 7.974818706512451 3.470762968063354 8.318859100341797 3.939052820205688 C 8.43195915222168 4.092992782592773 8.453488349914551 4.253912925720215 8.388669013977051 4.460833072662354 C 8.224668502807617 4.984382629394531 7.238778591156006 5.350042819976807 5.991158962249756 5.350042819976807 Z" stroke="none"/>
      <path d="M 5.15850830078125 3.028520584106445 C 4.513585567474365 3.660584449768066 4.321692943572998 4.23982048034668 4.352648735046387 4.457682609558105 C 4.357558727264404 4.492222785949707 4.363128662109375 4.531373023986816 4.479408740997314 4.593302726745605 C 4.711588859558105 4.716952800750732 5.283698558807373 4.850042819976807 5.991158962249756 4.850042819976807 C 7.157458782196045 4.850042819976807 7.850968837738037 4.504702568054199 7.911528587341309 4.311372756958008 C 7.92256498336792 4.276149749755859 7.924540996551514 4.256125450134277 7.924837589263916 4.248343467712402 C 7.903136253356934 4.207857131958008 7.764033794403076 4.056252479553223 7.3760986328125 3.909702777862549 C 6.987288951873779 3.762812852859497 6.603948593139648 3.71530294418335 6.479208946228027 3.71530294418335 L 6.474388599395752 3.71534276008606 C 6.461188793182373 3.715722799301147 6.448478698730469 3.715892791748047 6.435388565063477 3.715892791748047 C 5.794639587402344 3.715892791748047 5.399363040924072 3.296130895614624 5.15850830078125 3.028520584106445 M 5.206147193908691 1.900754451751709 C 5.747778415679932 1.900754451751709 5.987035751342773 2.715895175933838 6.435389518737793 2.715895175933838 C 6.438839912414551 2.715895175933838 6.442193508148193 2.715848922729492 6.445668697357178 2.715753078460693 C 6.456358909606934 2.715456962585449 6.467566013336182 2.715307712554932 6.479207992553711 2.715307235717773 C 7.141581535339355 2.715293407440186 9.308291435241699 3.197691440582275 8.865808486938477 4.610292911529541 C 8.588766098022461 5.494736671447754 7.248647689819336 5.850038051605225 5.991156101226807 5.850038051605225 C 5.204927444458008 5.850038051605225 4.451056480407715 5.711179733276367 4.00933837890625 5.475933074951172 C 2.861148834228516 4.864442825317383 3.337478637695312 3.404932737350464 4.472798824310303 2.300422668457031 C 4.77332592010498 2.008048534393311 5.009655475616455 1.900754451751709 5.206147193908691 1.900754451751709 Z" stroke="none" fill="#e65f28"/>
    </g>
    <g id="Path_96" data-name="Path 96" transform="translate(-2028.509 -104.397)" fill="#ce2b26" opacity="0.594">
      <path d="M 8.046690940856934 12.51880264282227 C 7.8690505027771 12.51880264282227 7.751100540161133 12.24905300140381 7.595590591430664 11.75129222869873 C 7.507820606231689 11.4703426361084 7.432010650634766 11.22771263122559 7.264900684356689 11.06154251098633 C 7.055800437927246 10.85364246368408 6.775120735168457 10.85364246368408 6.669460773468018 10.85364246368408 C 6.602090358734131 10.85364246368408 6.53385066986084 10.85740280151367 6.467860698699951 10.86103248596191 C 6.405410766601562 10.86447238922119 6.340840816497803 10.86803245544434 6.281420707702637 10.86803245544434 C 6.158760547637939 10.86804294586182 6.082290649414062 10.85278224945068 6.054130554199219 10.82269287109375 C 6.041360378265381 10.80904293060303 5.930390357971191 10.67421245574951 5.96535062789917 10.1492223739624 C 5.981270790100098 9.909952163696289 6.036140441894531 9.695182800292969 6.525960445404053 9.695182800292969 C 7.332050800323486 9.695182800292969 8.37782096862793 10.29220294952393 8.519280433654785 10.51745223999023 C 8.671320915222168 10.79404258728027 8.691770553588867 11.65690231323242 8.427430152893066 12.19359302520752 C 8.361630439758301 12.32720279693604 8.252181053161621 12.49125289916992 8.104490280151367 12.51398277282715 C 8.083720207214355 12.51718235015869 8.064270973205566 12.51880264282227 8.046690940856934 12.51880264282227 Z" stroke="none"/>
      <path d="M 6.526041030883789 10.19518280029297 L 6.526050567626953 10.19518280029297 C 6.501768112182617 10.1951847076416 6.480940818786621 10.19607257843018 6.463281631469727 10.19742870330811 C 6.459378242492676 10.26101016998291 6.458186149597168 10.3151216506958 6.458659172058105 10.36078453063965 C 6.523367881774902 10.35725021362305 6.595311164855957 10.35364246368408 6.669460773468018 10.35364246368408 C 7.062660694122314 10.35364246368408 7.381600379943848 10.47251224517822 7.617440700531006 10.70698261260986 C 7.872350692749023 10.96044254302979 7.974270820617676 11.28668212890625 8.072840690612793 11.60218238830566 C 8.076704025268555 11.61454963684082 8.080838203430176 11.62777996063232 8.085211753845215 11.64170837402344 C 8.096616744995117 11.58624362945557 8.106624603271484 11.52556037902832 8.11443042755127 11.45977210998535 C 8.151755332946777 11.14528465270996 8.118954658508301 10.89832878112793 8.089519500732422 10.78990650177002 C 7.858294486999512 10.58728885650635 7.084208965301514 10.19513511657715 6.526041030883789 10.19518280029297 M 6.525959968566895 9.195181846618652 C 7.469353675842285 9.195098876953125 8.731990814208984 9.866745948791504 8.956100463867188 10.27426242828369 C 9.314210891723633 10.92546272277832 9.153650283813477 12.85838222503662 8.180550575256348 13.00816249847412 C 8.133808135986328 13.01535701751709 8.089205741882324 13.01880073547363 8.046689987182617 13.01880073547363 C 7.204098224639893 13.01880073547363 7.165868282318115 11.66818332672119 6.912350654602051 11.41610240936279 C 6.862399101257324 11.3664379119873 6.775979042053223 11.35364437103271 6.669459342956543 11.3536376953125 C 6.556387901306152 11.35363101959229 6.420598983764648 11.3680362701416 6.281431198120117 11.3680362701416 C 5.852706909179688 11.3680362701416 5.392187118530273 11.23142719268799 5.466450691223145 10.11600303649902 C 5.51175594329834 9.435470581054688 5.961837768554688 9.195230484008789 6.525959968566895 9.195181846618652 Z" stroke="none" fill="#ce2b27"/>
    </g>
    <g id="Path_97" data-name="Path 97" transform="translate(-2031.598 -109.919)" fill="#ce2b26" opacity="0.241">
      <path d="M 1.951868772506714 8.404826164245605 C 1.948757767677307 8.40068531036377 1.945551514625549 8.396364212036133 1.942247033119202 8.391853332519531 C 1.914047122001648 8.35334300994873 1.915837049484253 8.258342742919922 1.946827054023743 8.149832725524902 C 2.031539916992188 7.853224754333496 2.268636703491211 7.58881664276123 2.385082006454468 7.512626647949219 C 2.559439182281494 7.560672283172607 2.862722635269165 7.79899263381958 3.026116609573364 7.996088981628418 C 2.99793267250061 7.993646144866943 2.968226194381714 7.992233276367188 2.937047004699707 7.992233276367188 C 2.761587142944336 7.992233276367188 2.587496995925903 8.036453247070312 2.404827117919922 8.127432823181152 C 2.236407041549683 8.211313247680664 2.103847026824951 8.301532745361328 1.997337102890015 8.37401294708252 C 1.983158826828003 8.383663177490234 1.967589855194092 8.394259452819824 1.951868772506714 8.404826164245605 Z" stroke="none"/>
      <path d="M 2.355740785598755 7.005390167236328 C 2.834845542907715 7.005390167236328 3.90027642250061 7.929009437561035 3.574197053909302 8.359143257141113 C 3.456274032592773 8.514699935913086 3.370967864990234 8.557676315307617 3.288234233856201 8.557676315307617 C 3.186132669448853 8.557676315307617 3.087877750396729 8.492231369018555 2.937048196792603 8.492231369018555 C 2.85334849357605 8.492231369018555 2.753506898880005 8.512353897094727 2.627737045288086 8.574993133544922 C 2.289035081863403 8.743686676025391 2.102243661880493 8.960640907287598 1.910411834716797 8.960640907287598 C 1.798633337020874 8.960640907287598 1.685167074203491 8.887027740478516 1.538877010345459 8.68730354309082 C 1.14152717590332 8.144803047180176 1.851117134094238 7.127283096313477 2.28158712387085 7.014203071594238 C 2.304260730743408 7.008247375488281 2.329101800918579 7.005390167236328 2.355740785598755 7.005390167236328 Z" stroke="none" fill="#ce2b27"/>
    </g>
    <g id="Path_99" data-name="Path 99" transform="translate(-2046.934 -100.569)" fill="#ce2b26" opacity="0.555">
      <path d="M 6.942991256713867 7.539419174194336 C 6.736036777496338 7.539419174194336 6.582292556762695 7.516922950744629 6.497899055480957 7.497056007385254 C 6.498759746551514 7.387652397155762 6.561856746673584 7.172132015228271 6.706821918487549 7.027474403381348 C 6.771136283874512 7.093697071075439 6.85283899307251 7.169079780578613 6.959891319274902 7.23431921005249 C 7.122311592102051 7.333319187164307 7.30553150177002 7.370449066162109 7.467181205749512 7.403209209442139 C 7.509774208068848 7.411840915679932 7.567250728607178 7.42349100112915 7.618085384368896 7.436269283294678 C 7.498321056365967 7.485127925872803 7.272291660308838 7.539419174194336 6.942991256713867 7.539419174194336 Z" stroke="none"/>
      <path d="M 6.744454860687256 6.452064990997314 C 6.931158065795898 6.452064990997314 7.013967514038086 6.681739807128906 7.220101356506348 6.807369709014893 C 7.511911392211914 6.985219478607178 8.235111236572266 6.854669570922852 8.183490753173828 7.49113941192627 C 8.150806427001953 7.894132614135742 7.503475666046143 8.039417266845703 6.942995548248291 8.039417266845703 C 6.618290901184082 8.039417266845703 6.322830677032471 7.990701198577881 6.192671298980713 7.915099620819092 C 5.837831497192383 7.709009647369385 5.999491691589355 6.946999549865723 6.441531181335449 6.59507942199707 C 6.571305274963379 6.49176025390625 6.666863441467285 6.452064990997314 6.744454860687256 6.452064990997314 Z" stroke="none" fill="#ce2b27"/>
    </g>
    <g id="Path_101" data-name="Path 101" transform="translate(-2031.402 -101.139)" fill="#fff" opacity="0.1">
      <path d="M -2.084434509277344 21.23280334472656 C -2.588044404983521 21.23280334472656 -3.016074419021606 21.18829345703125 -3.356664419174194 21.10053253173828 C -5.425024509429932 20.5675220489502 -7.304534435272217 19.25188255310059 -8.648954391479492 17.39595222473145 C -10.17600440979004 15.28791236877441 -10.983154296875 12.5458927154541 -10.983154296875 9.466322898864746 C -10.983154296875 7.951642513275146 -10.49229431152344 6.391322612762451 -9.524204254150391 4.828712463378906 C -8.661614418029785 3.436382532119751 -7.413864612579346 2.054012537002563 -5.91586446762085 0.8310425877571106 C -4.534604549407959 -0.2966073751449585 -2.991984367370605 -1.254967331886292 -1.454784512519836 -1.940427422523499 C 0.01313551422208548 -2.594997406005859 1.398075461387634 -2.955487489700317 2.444905519485474 -2.955487489700317 L 2.478585481643677 -2.955357313156128 C 4.681985378265381 -2.939187288284302 7.651385307312012 -1.432907342910767 10.04349517822266 0.8820726275444031 C 11.666015625 2.452252626419067 14.3913459777832 5.74564266204834 14.41418552398682 10.16076278686523 C 14.42325592041016 11.91434288024902 13.60042572021484 13.63519287109375 11.96856594085693 15.27552223205566 C 10.30657577514648 16.94613265991211 7.805285453796387 18.49326324462891 4.925475597381592 19.63190269470215 C 2.390175580978394 20.63433265686035 -0.2303544878959656 21.23280334472656 -2.084434509277344 21.23280334472656 Z" stroke="none"/>
      <path d="M 2.444904565811157 -2.455488204956055 C 0.3579745292663574 -2.455488204956055 -2.950075626373291 -0.9447479248046875 -5.599655151367188 1.218362808227539 C -7.055285453796387 2.406723022460938 -8.265395164489746 3.746222496032715 -9.099164962768555 5.092032432556152 C -10.01751518249512 6.574362754821777 -10.48315525054932 8.046082496643066 -10.48315525054932 9.466322898864746 C -10.48315525054932 12.43986320495605 -9.70887565612793 15.08045196533203 -8.244035720825195 17.10262298583984 C -6.967765808105469 18.86447334289551 -5.187755584716797 20.11233329772949 -3.231885433197021 20.61635208129883 C -2.932035446166992 20.69362258911133 -2.545985221862793 20.73280334472656 -2.08443546295166 20.73280334472656 C -0.2899954319000244 20.73280334472656 2.261794567108154 20.14743232727051 4.74162483215332 19.16693305969238 C 7.558864593505859 18.05303192138672 9.999554634094238 16.54579162597656 11.61409473419189 14.92288208007812 C 13.14868450164795 13.38034248352051 13.92254447937012 11.77900314331055 13.9141845703125 10.16334247589111 C 13.89230442047119 5.931292533874512 11.2618350982666 2.756912231445312 9.695795059204102 1.241363525390625 C 7.426524639129639 -0.9547176361083984 4.524674415588379 -2.440326690673828 2.475064516067505 -2.455377578735352 L 2.444904565811157 -2.455488204956055 M 2.444902181625366 -3.455484390258789 C 2.457482576370239 -3.455484390258789 2.469747066497803 -3.455438613891602 2.482254505157471 -3.455347061157227 C 7.036104679107666 -3.421916961669922 14.8749942779541 2.581691741943359 14.91417503356934 10.15817260742188 C 14.94974803924561 17.03545570373535 3.215821504592896 21.73279762268066 -2.084439754486084 21.73279762268066 C -2.62330436706543 21.73279762268066 -3.094677448272705 21.68437767028809 -3.481435298919678 21.58471298217773 C -7.672325134277344 20.50474166870117 -11.48315525054932 16.31630325317383 -11.48315525054932 9.466322898864746 C -11.48315525054932 2.635147094726562 -2.122933864593506 -3.455484390258789 2.444902181625366 -3.455484390258789 Z" stroke="none" fill="#fff"/>
    </g>
  </g>
</svg>
